<?xml version="1.0" standalone="no"?>
<!DOCTYPE svg PUBLIC "-//W3C//DTD SVG 20010904//EN"
 "http://www.w3.org/TR/2001/REC-SVG-20010904/DTD/svg10.dtd">
<svg version="1.0" xmlns="http://www.w3.org/2000/svg"
 width="867.000000pt" height="593.000000pt" viewBox="0 0 867.000000 593.000000"
 preserveAspectRatio="xMidYMid meet">

<g transform="translate(0.000000,593.000000) scale(0.100000,-0.100000)"
fill="#000000" stroke="none">
<path d="M3583 5131 c-138 -113 -413 -351 -413 -358 0 -3 15 8 34 24 424 356
528 446 514 442 -2 0 -63 -49 -135 -108z"/>
<path d="M3119 4733 l-24 -28 28 24 c25 23 32 31 24 31 -2 0 -14 -12 -28 -27z"/>
<path d="M4320 4606 c0 -2 8 -10 18 -17 15 -13 16 -12 3 4 -13 16 -21 21 -21
13z"/>
<path d="M4109 4483 l-24 -28 28 24 c25 23 32 31 24 31 -2 0 -14 -12 -28 -27z"/>
<path d="M4039 4423 l-24 -28 28 24 c25 23 32 31 24 31 -2 0 -14 -12 -28 -27z"/>
<path d="M2719 4393 c-13 -16 -12 -17 4 -4 16 13 21 21 13 21 -2 0 -10 -8 -17
-17z"/>
<path d="M3768 4197 c-239 -203 -301 -260 -218 -196 60 45 460 389 460 395 0
7 2 9 -242 -199z"/>
<path d="M2664 4348 l-19 -23 23 19 c21 18 27 26 19 26 -2 0 -12 -10 -23 -22z"/>
<path d="M2599 4293 c-13 -16 -12 -17 4 -4 16 13 21 21 13 21 -2 0 -10 -8 -17
-17z"/>
<path d="M2544 4248 l-29 -33 33 29 c17 17 32 31 32 33 0 8 -8 1 -36 -29z"/>
<path d="M2384 4118 c-67 -57 -186 -158 -265 -224 -79 -67 -153 -132 -164
-145 -11 -12 39 27 110 87 466 394 455 384 442 384 -1 0 -56 -46 -123 -102z"/>
<path d="M6230 4076 c0 -2 8 -10 18 -17 15 -13 16 -12 3 4 -13 16 -21 21 -21
13z"/>
<path d="M3469 3943 l-24 -28 28 24 c25 23 32 31 24 31 -2 0 -14 -12 -28 -27z"/>
<path d="M6420 3916 c0 -2 8 -10 18 -17 15 -13 16 -12 3 4 -13 16 -21 21 -21
13z"/>
<path d="M3409 3893 c-13 -16 -12 -17 4 -4 9 7 17 15 17 17 0 8 -8 3 -21 -13z"/>
<path d="M6485 3860 c10 -11 20 -20 23 -20 3 0 -3 9 -13 20 -10 11 -20 20 -23
20 -3 0 3 -9 13 -20z"/>
<path d="M1590 3348 c-17 -25 -31 -58 -26 -58 2 0 15 18 30 40 14 22 23 40 19
40 -5 0 -15 -10 -23 -22z"/>
<path d="M4920 3190 c0 -5 5 -10 11 -10 5 0 7 5 4 10 -3 6 -8 10 -11 10 -2 0
-4 -4 -4 -10z"/>
<path d="M3655 3170 c10 -11 20 -18 23 -15 7 6 -18 35 -31 35 -5 0 -2 -9 8
-20z"/>
<path d="M4947 3063 c21 -39 39 -70 41 -68 5 4 -43 96 -63 120 -9 11 1 -12 22
-52z"/>
<path d="M2489 3103 c-13 -16 -12 -17 4 -4 9 7 17 15 17 17 0 8 -8 3 -21 -13z"/>
<path d="M2424 3018 c-25 -35 -50 -72 -56 -83 -13 -25 0 -11 33 35 14 19 38
52 53 73 16 20 26 37 22 37 -3 0 -27 -28 -52 -62z"/>
<path d="M5001 2944 c0 -11 3 -14 6 -6 3 7 2 16 -1 19 -3 4 -6 -2 -5 -13z"/>
<path d="M5012 2910 c0 -8 4 -26 8 -40 6 -20 8 -21 8 -5 0 11 -3 29 -8 40 -5
12 -8 14 -8 5z"/>
<path d="M6255 2843 c4 -10 16 -42 27 -71 12 -29 23 -51 25 -48 5 5 -47 136
-54 136 -3 0 -2 -8 2 -17z"/>
<path d="M5031 2824 c0 -11 3 -14 6 -6 3 7 2 16 -1 19 -3 4 -6 -2 -5 -13z"/>
<path d="M2276 2755 c-3 -9 -6 -22 -5 -28 0 -7 5 -1 10 12 5 13 8 26 5 28 -2
2 -6 -3 -10 -12z"/>
<path d="M2250 2660 c-7 -28 -10 -53 -8 -55 3 -3 10 18 16 47 7 28 11 53 8 55
-2 2 -9 -19 -16 -47z"/>
<path d="M7241 2664 c0 -11 3 -14 6 -6 3 7 2 16 -1 19 -3 4 -6 -2 -5 -13z"/>
<path d="M3531 2609 c-3 -120 55 -332 134 -490 49 -97 134 -231 180 -284 15
-16 11 -7 -9 20 -47 64 -96 147 -157 260 -53 101 -111 295 -133 448 -11 71
-14 81 -15 46z"/>
<path d="M6331 2624 c0 -11 3 -14 6 -6 3 7 2 16 -1 19 -3 4 -6 -2 -5 -13z"/>
<path d="M2231 2574 c0 -11 3 -14 6 -6 3 7 2 16 -1 19 -3 4 -6 -2 -5 -13z"/>
<path d="M1312 2440 c0 -14 2 -19 5 -12 2 6 2 18 0 25 -3 6 -5 1 -5 -13z"/>
<path d="M7261 2414 c0 -11 3 -14 6 -6 3 7 2 16 -1 19 -3 4 -6 -2 -5 -13z"/>
<path d="M2222 2365 c0 -27 3 -68 7 -90 l9 -40 0 35 c0 19 -3 60 -8 90 l-7 55
-1 -50z"/>
<path d="M2762 2260 c0 -14 2 -19 5 -12 2 6 2 18 0 25 -3 6 -5 1 -5 -13z"/>
<path d="M1321 2204 c0 -27 4 -58 9 -69 5 -12 7 5 3 45 -7 79 -13 91 -12 24z"/>
<path d="M2241 2204 c0 -11 3 -14 6 -6 3 7 2 16 -1 19 -3 4 -6 -2 -5 -13z"/>
<path d="M6291 2079 c-6 -18 -9 -34 -7 -36 2 -2 9 10 15 28 6 18 9 34 7 36 -2
2 -9 -10 -15 -28z"/>
<path d="M2300 2025 c0 -17 86 -163 132 -223 54 -72 147 -165 226 -225 34 -27
62 -46 62 -44 0 3 -58 58 -130 123 -99 90 -140 134 -172 188 -70 118 -118 192
-118 181z"/>
<path d="M2816 1965 c10 -68 23 -109 44 -140 26 -39 26 -38 -15 80 -21 58 -33
83 -29 60z"/>
<path d="M4709 1813 l-24 -28 28 24 c15 14 27 26 27 28 0 8 -8 1 -31 -24z"/>
<path d="M4649 1743 l-34 -38 38 34 c20 19 37 36 37 38 0 8 -8 0 -41 -34z"/>
<path d="M5990 1643 l-55 -57 51 44 c43 38 71 70 61 70 -2 0 -27 -26 -57 -57z"/>
<path d="M4503 1617 c-82 -60 -90 -79 -9 -23 46 31 98 78 85 75 -2 0 -36 -24
-76 -52z"/>
<path d="M5847 1536 c-88 -60 -111 -81 -52 -46 67 39 154 105 133 99 -2 0 -38
-24 -81 -53z"/>
<path d="M4198 1543 c7 -3 16 -2 19 1 4 3 -2 6 -13 5 -11 0 -14 -3 -6 -6z"/>
<path d="M4285 1540 l-60 -7 60 0 c33 -1 71 3 85 7 l25 8 -25 -1 c-14 0 -52
-3 -85 -7z"/>
<path d="M2761 1506 c26 -25 256 -137 277 -135 9 0 -261 138 -272 138 -5 1 -7
-1 -5 -3z"/>
<path d="M5610 1414 c-100 -37 -126 -37 -117 -2 4 14 3 18 -4 11 -20 -20 -5
-48 25 -51 24 -3 206 63 206 74 0 7 -16 3 -110 -32z"/>
<path d="M2626 681 c5 -5 23 -12 39 -16 30 -6 30 -6 -4 10 -38 17 -49 19 -35
6z"/>
<path d="M3040 560 c14 -4 36 -8 50 -8 22 0 22 1 -5 8 -16 4 -39 8 -50 8 -16
0 -15 -2 5 -8z"/>
</g>
</svg>
